<?xml version="1.0" standalone="no"?>
<!DOCTYPE svg PUBLIC "-//W3C//DTD SVG 20010904//EN"
 "http://www.w3.org/TR/2001/REC-SVG-20010904/DTD/svg10.dtd">
<svg version="1.0" xmlns="http://www.w3.org/2000/svg"
 width="300.000000pt" height="225.000000pt" viewBox="0 0 300.000000 225.000000"
 preserveAspectRatio="xMidYMid meet">
<metadata>
Created by potrace 1.10, written by Peter Selinger 2001-2011
</metadata>
<g transform="translate(0.000000,225.000000) scale(0.100000,-0.100000)"
fill="#000000" stroke="none">
<path d="M1513 1778 c0 -14 -16 -46 -35 -72 -52 -68 -64 -121 -48 -217 7 -43
10 -86 6 -94 -3 -9 1 -26 8 -38 18 -28 41 -140 30 -144 -9 -3 -8 -390 1 -430
14 -61 20 -5 20 180 0 163 3 207 14 221 12 14 12 19 2 26 -18 11 -8 77 29 182
33 94 36 130 15 208 -8 30 -15 80 -15 111 0 31 -6 63 -14 74 -13 18 -13 17
-13 -7z m-21 -138 c-3 -32 -8 -48 -15 -43 -7 4 -8 -12 -3 -51 4 -41 3 -55 -5
-50 -8 5 -8 1 0 -14 6 -11 10 -54 10 -94 -1 -69 -2 -71 -9 -28 -20 110 -29
200 -23 234 4 26 9 33 14 24 6 -9 9 -6 9 10 0 20 16 62 23 62 1 0 0 -22 -1
-50z m44 -101 c6 -54 -7 -143 -27 -179 -10 -18 -11 293 -1 318 7 17 14 -16 28
-139z"/>
<path d="M1240 1506 c0 -21 48 -96 69 -109 34 -20 92 -81 95 -99 1 -8 14 -30
30 -49 21 -25 15 -8 -26 70 -29 57 -65 115 -79 130 -27 26 -89 67 -89 57z"/>
<path d="M1693 1475 c-52 -35 -91 -89 -148 -205 l-26 -55 26 33 c41 49 79 65
185 73 52 4 127 17 165 30 l70 22 -35 9 c-19 6 -66 8 -105 6 -57 -3 -86 -12
-155 -45 -47 -23 -87 -39 -90 -36 -5 5 72 78 111 104 25 17 76 99 62 99 -5 0
-31 -16 -60 -35z"/>
<path d="M1055 1381 c-28 -7 -24 -9 45 -30 41 -13 113 -27 160 -31 102 -9 124
-17 114 -39 -19 -45 -45 -154 -51 -213 -5 -58 -3 -68 11 -74 9 -4 20 -3 24 1
4 4 1 10 -5 12 -19 7 -16 42 13 169 14 63 22 119 19 124 -4 6 -42 28 -86 50
-70 36 -86 40 -146 39 -38 -1 -81 -5 -98 -8z"/>
<path d="M667 1330 c12 -5 25 -22 29 -37 3 -15 10 -44 15 -63 5 -19 9 -68 9
-107 0 -40 4 -73 9 -73 16 0 18 35 10 136 -9 108 -27 147 -70 151 -24 3 -24 3
-2 -7z"/>
<path d="M610 1303 c-42 -54 -7 -157 37 -108 17 18 17 18 1 6 -44 -33 -66 53
-27 103 11 14 18 26 15 26 -2 0 -14 -12 -26 -27z"/>
<path d="M855 1304 c-9 -15 -18 -38 -20 -53 -1 -14 -8 -53 -15 -86 -20 -100
-2 -195 36 -195 12 0 11 5 -2 25 -24 37 -14 224 15 289 22 50 14 62 -14 20z"/>
<path d="M1745 1288 c-64 -189 -73 -298 -25 -298 11 0 20 5 20 10 0 6 -5 10
-11 10 -18 0 -4 165 18 233 11 31 16 57 11 57 -5 0 -11 -6 -13 -12z"/>
<path d="M1805 1210 c-3 -11 -14 -20 -23 -20 -14 0 -14 -2 -3 -9 12 -8 12 -19
3 -67 -16 -78 -15 -113 3 -121 21 -7 33 6 16 16 -10 6 -11 21 -6 52 14 91 24
117 48 122 22 4 22 4 0 6 -16 1 -20 6 -16 21 3 11 1 20 -5 20 -6 0 -14 -9 -17
-20z"/>
<path d="M921 1147 c-33 -41 -53 -138 -31 -152 17 -11 32 5 20 20 -22 26 16
135 47 135 15 0 15 -15 3 -75 -1 -5 -2 -27 -1 -47 1 -41 19 -50 41 -23 11 13
10 14 -5 9 -16 -7 -17 -2 -12 42 3 27 9 60 12 74 6 23 3 25 -28 27 -19 2 -40
-3 -46 -10z"/>
<path d="M1057 1153 c-4 -3 -2 -12 4 -19 7 -9 5 -31 -6 -74 -16 -61 -14 -83 4
-64 14 14 35 128 28 147 -7 18 -19 22 -30 10z"/>
<path d="M1119 1144 c-9 -12 -10 -15 -1 -10 23 14 34 -5 17 -31 -19 -29 -12
-44 11 -22 21 22 23 72 3 77 -9 1 -22 -5 -30 -14z"/>
<path d="M1211 1146 c-51 -61 -53 -193 -3 -142 15 15 15 16 -2 16 -15 0 -16 5
-11 33 13 56 33 97 51 97 13 0 15 -7 10 -37 -14 -81 -3 -135 24 -118 8 5 8 10
0 20 -12 14 -5 96 11 125 6 13 0 16 -31 17 -21 1 -43 -4 -49 -11z"/>
<path d="M1854 1118 c0 -24 -4 -62 -8 -85 -12 -62 8 -54 25 10 16 59 14 117
-4 117 -8 0 -13 -16 -13 -42z"/>
<path d="M1917 1154 c-4 -4 0 -12 7 -18 12 -9 12 -20 -1 -74 -14 -56 -13 -85
3 -69 10 10 26 81 28 122 1 28 -3 40 -14 43 -9 1 -19 0 -23 -4z"/>
<path d="M1990 1152 c0 -4 4 -12 10 -18 6 -6 4 -30 -6 -67 -12 -46 -12 -62 -3
-73 16 -19 21 -12 24 33 1 21 5 59 10 86 7 44 6 47 -14 47 -11 0 -21 -4 -21
-8z"/>
<path d="M2085 1140 c-21 -24 -47 -109 -39 -132 3 -10 12 -18 19 -18 18 0 32
23 17 28 -16 5 -15 45 2 86 29 69 64 57 45 -15 -14 -51 -6 -99 16 -99 18 0 19
12 4 27 -8 8 -6 28 5 73 9 34 16 63 16 64 0 1 -15 2 -34 3 -22 1 -41 -6 -51
-17z"/>
<path d="M2217 1143 c-26 -30 -41 -102 -26 -130 13 -24 52 -32 65 -11 4 7 3 8
-5 4 -37 -23 -55 62 -24 115 20 34 48 40 38 9 -7 -22 10 -28 18 -6 13 33 -39
48 -66 19z"/>
<path d="M2319 1128 c-11 -18 -22 -45 -26 -61 -3 -15 -9 -30 -14 -33 -5 -3 0
-15 11 -27 19 -20 21 -20 37 -4 16 16 16 17 0 17 -21 0 -21 14 -1 74 10 29 25
51 38 56 21 9 21 9 -2 9 -15 1 -29 -10 -43 -31z"/>
<path d="M2393 1148 c-19 -30 -31 -83 -26 -114 7 -42 20 -52 41 -30 16 16 16
17 -2 10 -18 -7 -19 -4 -12 50 3 32 11 67 17 77 11 21 -5 27 -18 7z"/>
<path d="M1553 1135 c-13 -9 -23 -24 -23 -33 0 -13 3 -12 16 6 13 19 24 22 76
22 71 0 72 8 2 16 -35 3 -55 0 -71 -11z"/>
<path d="M1591 1064 c-18 -30 -44 -60 -57 -66 -13 -6 -24 -16 -24 -21 0 -10
16 1 58 38 24 20 67 93 60 101 -2 2 -19 -22 -37 -52z"/>
<path d="M632 1041 c-12 -16 -31 -31 -43 -33 -28 -4 -38 -28 -12 -28 21 0 53
30 72 68 16 31 9 28 -17 -7z"/>
<path d="M527 972 c-48 -52 9 -131 107 -152 65 -13 109 -10 296 25 183 34 247
38 330 21 143 -30 221 -107 230 -228 6 -73 0 -85 -20 -38 -16 39 -91 107 -144
131 -63 27 -140 33 -214 16 l-62 -14 23 31 c58 77 70 96 65 101 -7 7 -174
-185 -170 -196 1 -5 -4 -9 -12 -9 -7 0 -19 -7 -26 -15 -11 -13 -10 -14 6 -9
11 4 1 -12 -25 -39 -25 -26 -42 -49 -40 -52 3 -3 53 2 110 11 57 9 154 17 214
18 134 1 176 -14 199 -69 10 -23 20 -34 27 -29 8 4 9 3 5 -4 -9 -15 34 -32 82
-32 47 0 80 23 98 67 23 53 66 68 199 67 61 -1 157 -9 214 -18 57 -9 107 -14
110 -11 2 3 -17 28 -45 56 -30 31 -40 47 -26 39 13 -6 -25 43 -84 109 -106
119 -145 150 -88 71 64 -90 62 -82 13 -73 -77 14 -170 8 -220 -14 -57 -26
-124 -85 -149 -132 l-19 -36 -1 66 c0 55 4 73 26 105 47 71 126 117 226 134
77 12 138 7 313 -25 194 -36 226 -38 290 -25 103 21 159 106 104 156 l-21 19
19 -33 c16 -29 17 -34 3 -59 -8 -16 -35 -38 -60 -51 -39 -20 -55 -23 -120 -19
-41 3 -138 20 -215 38 -108 25 -164 33 -245 33 -100 1 -109 -1 -172 -32 -67
-33 -117 -80 -141 -134 -15 -34 -23 -35 -31 -5 -10 43 -75 105 -144 139 -63
31 -72 33 -172 32 -81 0 -137 -8 -245 -33 -77 -18 -174 -35 -215 -38 -65 -4
-81 -1 -120 19 -59 30 -80 70 -57 110 19 33 17 35 -6 10z m803 -255 c22 -11
26 -14 10 -10 -44 11 -173 6 -245 -11 -38 -9 -81 -19 -95 -22 -21 -5 -18 -1
13 20 20 14 52 30 70 35 50 16 206 8 247 -12z m588 11 c26 -6 55 -20 66 -30
11 -10 24 -18 30 -18 5 0 7 -3 4 -6 -3 -3 -32 2 -65 10 -104 27 -197 37 -254
26 -66 -13 -73 -7 -17 13 52 19 172 21 236 5z m-552 -47 c44 -20 84 -67 76
-90 -3 -8 0 -11 7 -7 7 5 9 1 5 -8 -5 -13 3 -16 46 -16 40 0 51 3 47 14 -9 23
40 83 86 105 32 15 63 21 114 21 88 0 239 -34 273 -61 21 -17 22 -19 5 -15
-202 53 -329 61 -402 24 -26 -12 -53 -34 -62 -48 -13 -21 -10 -20 20 8 42 38
84 52 161 52 101 0 316 -56 295 -76 -3 -3 -42 2 -88 10 -212 40 -287 40 -318
2 -10 -12 -6 -12 26 0 21 7 63 13 93 12 l55 -1 -68 -8 c-73 -8 -126 -33 -142
-66 -10 -18 -13 -19 -30 -7 -23 17 -106 18 -127 2 -9 -7 -18 -20 -21 -28 -3
-9 -6 -4 -6 11 -1 14 -10 34 -21 44 -11 10 -17 21 -14 26 2 4 -7 16 -22 25
-35 23 -118 21 -269 -6 -65 -11 -120 -19 -122 -16 -9 8 51 33 127 52 47 12
111 19 171 19 89 0 98 -2 140 -29 24 -16 38 -22 30 -12 -50 61 -181 73 -358
32 -57 -13 -103 -20 -103 -17 0 27 169 69 280 70 53 0 87 -5 116 -18z m-10
-90 c17 -11 15 -11 -11 -5 -16 3 -57 10 -90 15 l-60 8 71 -3 c39 -2 79 -9 90
-15z m172 -67 c29 -8 28 -18 -4 -32 -18 -9 -31 -9 -45 -2 -31 17 -24 29 21 39
3 0 15 -2 28 -5z"/>
</g>
</svg>
